<!DOCTYPE svg PUBLIC "-//W3C//DTD SVG 1.1//EN" "http://www.w3.org/Graphics/SVG/1.1/DTD/svg11.dtd">
<!-- Uploaded to: SVG Repo, www.svgrepo.com, Transformed by: SVG Repo Mixer Tools -->
<svg height="800px" width="800px" version="1.1" id="Layer_1" xmlns="http://www.w3.org/2000/svg" xmlns:xlink="http://www.w3.org/1999/xlink" viewBox="0 0 512 512" xml:space="preserve" fill="#000000">
<g id="SVGRepo_bgCarrier" stroke-width="0"/>
<g id="SVGRepo_tracerCarrier" stroke-linecap="round" stroke-linejoin="round"/>
<g id="SVGRepo_iconCarrier"> <g> <path style="fill:#000000;" d="M512,256c0,141.383-114.617,256-256,256S0,397.383,0,256S114.617,0,256,0S512,114.617,512,256"/> <path style="fill:#064e0c;" d="M459.034,256c0,112.137-90.898,203.034-203.034,203.034S52.966,368.137,52.966,256 S143.863,52.966,256,52.966S459.034,143.863,459.034,256"/> <g> <path style="fill:#000000;" d="M247.172,185.379h17.655V52.966h-17.655V185.379z"/> <path style="fill:#000000;" d="M247.172,459.034h17.655V326.621h-17.655V459.034z"/> <path style="fill:#000000;" d="M221.836,207.384l-70.621-124.69l15.36-8.695l70.621,124.69L221.836,207.384z"/> <path style="fill:#000000;" d="M198.655,228.354L75.069,157.733l8.757-15.325l123.586,70.621L198.655,228.354z"/> <path style="fill:#000000;" d="M52.966,264.828h132.414v-17.655H52.966V264.828z"/> <path style="fill:#000000;" d="M84.043,365.108l-9.013-15.183l141.153-83.862l9.013,15.183L84.043,365.108z"/> <path style="fill:#000000;" d="M162.112,437l-15.263-8.898l92.69-158.897l15.263,8.898L162.112,437z"/> <path style="fill:#000000;" d="M290.164,207.384l-15.36-8.695l70.621-124.69l15.36,8.695L290.164,207.384z"/> <path style="fill:#000000;" d="M304.293,237.306l-8.307-15.581L428.4,151.104l8.307,15.581L304.293,237.306z"/> <path style="fill:#000000;" d="M326.621,264.828h132.414v-17.655H326.621V264.828z"/> <path style="fill:#000000;" d="M427.957,365.108l-141.153-83.862l9.013-15.183l141.153,83.862L427.957,365.108z"/> <path style="fill:#000000;" d="M349.836,436.905l-75.034-132.414l15.36-8.704l75.034,132.414L349.836,436.905z"/> <path style="fill:#000000;" d="M326.621,256c0,39-31.62,70.621-70.621,70.621S185.379,295,185.379,256S217,185.379,256,185.379 S326.621,217,326.621,256"/> </g> <path style="fill:#064e0c;" d="M282.483,256c0,14.627-11.855,26.483-26.483,26.483c-14.627,0-26.483-11.855-26.483-26.483 c0-14.627,11.855-26.483,26.483-26.483C270.627,229.517,282.483,241.373,282.483,256"/> </g> </g>
</svg>